<svg xmlns="http://www.w3.org/2000/svg" width="1000" height="320" viewBox="0 0 1000 320" role="img" aria-label="Narrow A variations">
  <rect width="1000" height="320" fill="#0a0f18"/>
  <g transform="translate(40 40)">
    <g fill="#ffffff" transform="scale(1.3)"><path d="M64 0H92L106 35H78L28 160H0Z"/><path d="M110 115H138L156 160H128Z"/><path d="M61 105H134L110 45H82L96 80H71Z"/></g>
    <text x="0" y="250" fill="#a7b1bf" font-family="IBM Plex Sans, Helvetica, Arial, sans-serif" font-size="15">07-narrow-2-5-head-35</text>
    <text x="0" y="272" fill="#738197" font-family="IBM Plex Sans, Helvetica, Arial, sans-serif" font-size="13">Slope 2:5, head rises 35 (cut at counter apex)</text>
  </g>
  <g transform="translate(360 40)">
    <g fill="#ffffff" transform="scale(1.3)"><path d="M64 0H92L108 40H80L78 35L28 160H0Z"/><path d="M110 115H138L156 160H128Z"/><path d="M61 105H134L112 50H84L96 80H71Z"/></g>
    <text x="0" y="250" fill="#a7b1bf" font-family="IBM Plex Sans, Helvetica, Arial, sans-serif" font-size="15">08-narrow-2-5-head-30</text>
    <text x="0" y="272" fill="#738197" font-family="IBM Plex Sans, Helvetica, Arial, sans-serif" font-size="13">Slope 2:5, head rises 30</text>
  </g>
  <g transform="translate(680 40)">
    <g fill="#ffffff" transform="scale(1.3)"><path d="M54 0H82L94 36H66L68 42L28 162H0Z"/><path d="M92 114H120L136 162H108Z"/><path d="M53 105H117L97 45H69L81 81H63Z"/></g>
    <text x="0" y="250" fill="#a7b1bf" font-family="IBM Plex Sans, Helvetica, Arial, sans-serif" font-size="15">09-narrow-1-3-head-36</text>
    <text x="0" y="272" fill="#738197" font-family="IBM Plex Sans, Helvetica, Arial, sans-serif" font-size="13">Slope 1:3, head rises 36 (162 tall)</text>
  </g>
</svg>
